<mxfile host="app.diagrams.net" modified="2024-02-06T01:30:41.240Z" agent="Mozilla/5.0 (Windows NT 10.0; Win64; x64) AppleWebKit/537.36 (KHTML, like Gecko) Chrome/120.0.0.0 Safari/537.36" version="23.1.1" etag="Nhuu3bSIU8HKAxqSTnDu" type="github">
  <diagram name="Page-1" id="p-jZb1-17Dwt8By83dOA">
    <mxGraphModel>
      <root>
        <mxCell id="0" />
        <mxCell id="1" parent="0" />
      </root>
    </mxGraphModel>
  </diagram>
</mxfile>
